<svg t="1756434828904" class="icon" viewBox="0 0 1024 1024" version="1.1" xmlns="http://www.w3.org/2000/svg" p-id="16096" width="200" height="200"><path d="M93.12 0h837.76C992.96 0 1024 31.04 1024 93.12v837.76c0 62.08-31.04 93.12-93.12 93.12H93.12C31.04 1024 0 992.96 0 930.88V93.12C0 31.04 31.04 0 93.12 0z" fill="#FFFFFFCC" p-id="16097"></path><path d="M696.768 638.272a181.12 181.12 0 0 1-105.216-42.816c-58.24 12.8-113.728 31.36-169.216 54.208C378.304 728.064 337.024 768 301.504 768a36.928 36.928 0 0 1-21.312-5.696 42.048 42.048 0 0 1-24.192-38.528c0-12.8 2.816-48.448 137.92-106.88 31.296-57.024 55.488-115.52 75.392-176.832-17.088-34.176-54.08-118.336-28.48-161.088a45.248 45.248 0 0 1 44.096-22.848c14.208 0 28.416 7.168 36.992 18.56 18.432 25.664 17.024 79.872-7.168 159.68 22.784 42.752 52.608 81.28 88.192 114.048a479.296 479.296 0 0 1 89.6-9.984c66.816 1.472 76.8 32.832 75.328 51.328 0 48.512-46.912 48.512-71.04 48.512z m-398.08 88.32l4.224-1.344c19.904-7.168 35.584-21.376 46.912-39.936-21.312 8.576-38.4 22.784-51.2 41.344zM487.68 299.008h-4.224c-1.408 0-4.288 0-5.696 1.408-5.696 24.256-1.408 49.92 8.512 72.704 8.512-24.192 8.512-49.92 1.408-74.112z m9.984 206.72l-1.408 2.88-1.472-1.472a1179.52 1179.52 0 0 1-42.624 96.96l2.816-1.408v2.816c31.616-11.456 63.936-20.992 96.704-28.48L550.4 575.552h4.288a436.288 436.288 0 0 1-56.96-69.888z m193.408 75.52c-12.8 0-24.192 0-36.992 2.88 14.208 7.168 28.416 9.984 42.624 11.392 9.984 1.472 19.904 0 28.48-2.816 0-4.288-5.76-11.392-34.112-11.392z" fill="#FF4D4F" p-id="16098"></path></svg>